<svg height="512" viewBox="0 0 64 64" width="512" xmlns="http://www.w3.org/2000/svg"><g id="Wallet"><path d="m5 21h46a4 4 0 0 1 4 4v29a4 4 0 0 1 -4 4h-48a0 0 0 0 1 0 0v-35a2 2 0 0 1 2-2z" fill="#a78966"/><path d="m55 25v29a4 4 0 0 1 -4 4h-5a4 4 0 0 0 4-4v-29a4 4 0 0 0 -4-4h5a4 4 0 0 1 4 4z" fill="#806749"/><path d="m51.04 3h-.04a10 10 0 0 0 -.04 20h.04a9.759 9.759 0 0 0 3.12-.5 10 10 0 0 0 -3.08-19.5z" fill="#ffd422"/><path d="m61 13a10.009 10.009 0 0 1 -6.88 9.5 9.759 9.759 0 0 1 -3.12.5h-.04a9.054 9.054 0 0 1 -1.96-.21 8.362 8.362 0 0 0 1.12-.29 10 10 0 0 0 -1.13-19.3 10.225 10.225 0 0 1 2.01-.2h.04a10 10 0 0 1 9.96 10z" fill="#ebbf00"/><path d="m49 29v30a2.006 2.006 0 0 1 -2 2h-36v-34h36a2.006 2.006 0 0 1 2 2z" fill="#c0ab91"/><path d="m49 29v30a2.006 2.006 0 0 1 -2 2h-4a2.006 2.006 0 0 0 2-2v-30a2.006 2.006 0 0 0 -2-2h4a2.006 2.006 0 0 1 2 2z" fill="#a78966"/><path d="m39 21v6h-4v-20h-22v-4h26z" fill="#009698"/><path d="m35 7v20h-4v-16h-22v-4h4z" fill="#00b6bd"/><path d="m7 11h24v16h-24z" fill="#009698"/><path d="m7 27h4v34h-4z" fill="#a78966"/><path d="m3 27h4v34h-4z" fill="#c0ab91"/><path d="m55 39v10h-24a2.006 2.006 0 0 1 -2-2v-6a2.006 2.006 0 0 1 2-2z" fill="#a78966"/><path d="m45 39h10v10h-10z" fill="#806749"/><path d="m44 34h2v-3a1 1 0 0 0 -1-1h-3v2h2z"/><path d="m44 56h-2v2h3a1 1 0 0 0 1-1v-3h-2z"/><path d="m62 13a11 11 0 1 0 -19.48 7h-2.52v-17a1 1 0 0 0 -1-1h-26a1 1 0 0 0 -1 1v3h-3a1 1 0 0 0 -1 1v3h-1a1 1 0 0 0 -1 1v9h-1a3.009 3.009 0 0 0 -3 3v38a1 1 0 0 0 1 1h44a3.009 3.009 0 0 0 3-3h1a5 5 0 0 0 5-5v-29a4.935 4.935 0 0 0 -.44-2 11.015 11.015 0 0 0 6.44-10zm-56 47h-2v-32h2zm0-34h-2v-3a1 1 0 0 1 1-1h1zm8-22h24v22h-2v-19a1 1 0 0 0 -1-1h-21zm-4 4h24v18h-2v-15a1 1 0 0 0 -1-1h-21zm-2 4h22v14h-22zm2 48h-2v-32h2zm38-1a1 1 0 0 1 -1 1h-35v-32h35a1 1 0 0 1 1 1v9h-17a3.009 3.009 0 0 0 -3 3v6a3.009 3.009 0 0 0 3 3h17zm6-5a3.009 3.009 0 0 1 -3 3h-1v-7h4zm0-6h-23a1 1 0 0 1 -1-1v-6a1 1 0 0 1 1-1h23zm0-10h-4v-9a3.009 3.009 0 0 0 -3-3h-7v-4h4.7a10.858 10.858 0 0 0 6.3 2 11.159 11.159 0 0 0 2.67-.34 2.95 2.95 0 0 1 .33 1.34zm-3-16a9 9 0 1 1 9-9 9.014 9.014 0 0 1 -9 9z"/><path d="m51 8a2 2 0 0 1 2 2h2a4 4 0 0 0 -3-3.858v-1.142h-2v1.142a3.992 3.992 0 0 0 1 7.858 2 2 0 1 1 -2 2h-2a4 4 0 0 0 3 3.858v1.142h2v-1.142a3.992 3.992 0 0 0 -1-7.858 2 2 0 0 1 0-4z"/><path d="m12 16h3v-2h-4a1 1 0 0 0 -1 1v4h2z"/><path d="m26 19h2v-4a1 1 0 0 0 -1-1h-4v2h3z"/><path d="m32 43h2v2h-2z"/><path d="m38 30h2v2h-2z"/><path d="m34 30h2v2h-2z"/><path d="m30 30h2v2h-2z"/><path d="m26 30h2v2h-2z"/><path d="m22 30h2v2h-2z"/><path d="m18 30h2v2h-2z"/><path d="m14 30h2v2h-2z"/><path d="m38 56h2v2h-2z"/><path d="m34 56h2v2h-2z"/><path d="m30 56h2v2h-2z"/><path d="m26 56h2v2h-2z"/><path d="m22 56h2v2h-2z"/><path d="m18 56h2v2h-2z"/><path d="m14 56h2v2h-2z"/></g></svg>